<svg xmlns="http://www.w3.org/2000/svg" viewBox="0 0 220 220" width="220" height="220">
<title>abcd duckling-mini</title>
<desc>Square canvas variant for avatar and icon use. Transparent variant: for dark surfaces only.</desc>
<g shape-rendering="crispEdges">
<rect x="50" y="60" width="20" height="20" fill="#f0c052"/>
<rect x="70" y="60" width="20" height="20" fill="#f0c052"/>
<rect x="90" y="60" width="20" height="20" fill="#f0c052"/>
<rect x="50" y="80" width="20" height="20" fill="#f0c052"/>
<rect x="70" y="80" width="20" height="20" fill="#1f2328"/>
<rect x="90" y="80" width="20" height="20" fill="#f0c052"/>
<rect x="110" y="80" width="20" height="20" fill="#f0c052"/>
<rect x="30" y="100" width="20" height="20" fill="#d97757"/>
<rect x="50" y="100" width="20" height="20" fill="#f0c052"/>
<rect x="70" y="100" width="20" height="20" fill="#f0c052"/>
<rect x="90" y="100" width="20" height="20" fill="#f0c052"/>
<rect x="110" y="100" width="20" height="20" fill="#f0c052"/>
<rect x="130" y="100" width="20" height="20" fill="#f0c052"/>
<rect x="150" y="100" width="20" height="20" fill="#f0c052"/>
<rect x="50" y="120" width="20" height="20" fill="#f0c052"/>
<rect x="70" y="120" width="20" height="20" fill="#f0c052"/>
<rect x="90" y="120" width="20" height="20" fill="#f0c052"/>
<rect x="110" y="120" width="20" height="20" fill="#f0c052"/>
<rect x="130" y="120" width="20" height="20" fill="#f0c052"/>
<rect x="30" y="140" width="20" height="20" fill="#2b7a8c"/>
<rect x="50" y="140" width="20" height="20" fill="#2b7a8c"/>
<rect x="70" y="140" width="20" height="20" fill="#2b7a8c"/>
<rect x="90" y="140" width="20" height="20" fill="#2b7a8c"/>
<rect x="110" y="140" width="20" height="20" fill="#2b7a8c"/>
<rect x="130" y="140" width="20" height="20" fill="#2b7a8c"/>
<rect x="150" y="140" width="20" height="20" fill="#2b7a8c"/>
<rect x="170" y="140" width="20" height="20" fill="#2b7a8c"/>
</g>
</svg>
